<?xml version="1.0" encoding="UTF-8"?>
<svg width="24px" height="24px" viewBox="0 0 24 24" version="1.1" xmlns="http://www.w3.org/2000/svg" xmlns:xlink="http://www.w3.org/1999/xlink">
    <g stroke="none" stroke-width="1" fill="none" fill-rule="evenodd">
        <path d="M12,2 C16.4183,2 20,3.34315 20,5 L20,19 C20,20.6569 16.4183,22 12,22 C7.58172,22 4,20.6569 4,19 L4,5 C4,3.34315 7.58172,2 12,2 Z" stroke="#FFFFFF" stroke-width="2" stroke-linecap="round" stroke-linejoin="round"></path>
        <path d="M4,13 C4,14.6569 7.58172,16 12,16 C16.4183,16 20,14.6569 20,13" stroke="#FFFFFF" stroke-width="2" stroke-linecap="round" stroke-linejoin="round"></path>
        <path d="M4,7 C4,8.65685 7.58172,10 12,10 C16.4183,10 20,8.65685 20,7" stroke="#FFFFFF" stroke-width="2" stroke-linecap="round" stroke-linejoin="round"></path>
    </g>
</svg> 